{
  "asset": {
    "version": "2.0",
    "generator": "THREE.GLTFExporter"
  },
  "scenes": [
    {
      "nodes": [
        0
      ]
    }
  ],
  "scene": 0,
  "nodes": [
    {
      "children": [
        6
      ],
      "matrix": [
        0.01,
        0,
        0,
        0,
        0,
        0.01,
        0,
        0,
        0,
        0,
        0.01,
        0,
        0,
        0,
        0,
        1
      ]
    },
    {
      "matrix": [
        1.9100762741461013,
        0,
        0,
        0,
        0,
        4.2412213166944685e-16,
        1.9100762741461013,
        0,
        0,
        -1.9100762741461013,
        4.2412213166944685e-16,
        0,
        -267.9990813171698,
        -413.6804611797644,
        -52.928471612232784,
        1
      ],
      "name": "Banana",
      "mesh": 0
    },
    {
      "matrix": [
        -1,
        -1.5381985448916447e-16,
        1.247317745609218e-16,
        0,
        -1.644061096749102e-16,
        1.0000000000000004,
        4.406877377903811e-17,
        0,
        -1.3868731689562522e-16,
        4.4068773779038086e-17,
        -1.0000000000000002,
        0,
        4.4072929640804325e-16,
        34.25046253493588,
        -5.25311405771231e-14,
        0.9999999999999999
      ],
      "name": "Toma",
      "children": [
        1
      ]
    },
    {
      "matrix": [
        0.5883484054145521,
        0.39223227027636803,
        -0.7071067811865475,
        0,
        -0.554700196225229,
        0.8320502943378437,
        0,
        0,
        0.588348405414552,
        0.392232270276368,
        0.7071067811865476,
        0,
        0,
        0,
        0,
        1
      ],
      "name": "Directional Light",
      "extensions": {
        "KHR_lights_punctual": {
          "light": 0
        }
      }
    },
    {
      "matrix": [
        0.7071067811865477,
        0,
        -0.7071067811865472,
        0,
        -0.40824829046386296,
        0.816496580927726,
        -0.40824829046386313,
        0,
        0.5773502691896255,
        0.5773502691896258,
        0.5773502691896258,
        0,
        577.3502691896256,
        577.3502691896256,
        577.3502691896257,
        1
      ],
      "name": "Personal Camera",
      "camera": 0
    },
    {
      "matrix": [
        1,
        0,
        0,
        0,
        0,
        1,
        0,
        0,
        0,
        0,
        1,
        0,
        0,
        1,
        0,
        1
      ],
      "name": "Default Ambient Light"
    },
    {
      "name": "Scene 1",
      "children": [
        2,
        3,
        4,
        5
      ]
    }
  ],
  "bufferViews": [
    {
      "buffer": 0,
      "byteOffset": 0,
      "byteLength": 170496,
      "target": 34962,
      "byteStride": 12
    },
    {
      "buffer": 0,
      "byteOffset": 170496,
      "byteLength": 170496,
      "target": 34962,
      "byteStride": 12
    },
    {
      "buffer": 0,
      "byteOffset": 340992,
      "byteLength": 113664,
      "target": 34962,
      "byteStride": 8
    }
  ],
  "buffers": [
    {
      "byteLength": 454656,
      "uri": "data:application/octet-stream;base64,"
    }
  ],
  "accessors": [
    {
      "bufferView": 0,
      "componentType": 5126,
      "count": 14208,
      "max": [
        253.1463165283203,
        53.88710021972656,
        -149.33164978027344
      ],
      "min": [
        27.46978759765625,
        1.5331699848175049,
        -283.8243103027344
      ],
      "type": "VEC3"
    },
    {
      "bufferView": 1,
      "componentType": 5126,
      "count": 14208,
      "max": [
        0.9996078610420227,
        0.9999979734420776,
        0.9943540692329407
      ],
      "min": [
        -0.9983277320861816,
        -0.999925434589386,
        -0.9999272227287292
      ],
      "type": "VEC3"
    },
    {
      "bufferView": 2,
      "componentType": 5126,
      "count": 14208,
      "max": [
        0.9959890246391296,
        0.9993870258331299
      ],
      "min": [
        0.0012870000209659338,
        0.0003809999907389283
      ],
      "type": "VEC2"
    }
  ],
  "materials": [
    {
      "pbrMetallicRoughness": {
        "baseColorTexture": {
          "index": 0,
          "extensions": {
            "KHR_texture_transform": {
              "offset": [
                0,
                0
              ],
              "scale": [
                1,
                1
              ]
            }
          }
        },
        "metallicFactor": 0,
        "roughnessFactor": 0.995
      },
      "doubleSided": false
    }
  ],
  "textures": [
    {
      "sampler": 0,
      "source": 0
    }
  ],
  "samplers": [
    {
      "magFilter": 9729,
      "minFilter": 9729,
      "wrapS": 10497,
      "wrapT": 10497
    }
  ],
  "images": [
    {
      "mimeType": "image/jpeg",
      "uri": "data:image/jpeg;base64,"
    }
  ],
  "meshes": [
    {
      "primitives": [
        {
          "mode": 4,
          "attributes": {
            "POSITION": 0,
            "NORMAL": 1,
            "TEXCOORD_0": 2
          },
          "extras": {
            "parameters": {
              "width": 225.67652893066406,
              "height": 52.35393023490906,
              "depth": 134.49266052246094,
              "subdivisions": 0
            },
            "type": "NonParametricGeometry"
          },
          "material": 0
        }
      ]
    }
  ],
  "extensions": {
    "KHR_lights_punctual": {
      "lights": [
        {
          "name": "Directional Light",
          "color": [
            1,
            1,
            1
          ],
          "intensity": 0.7,
          "type": "directional"
        }
      ]
    }
  },
  "cameras": [
    {
      "type": "perspective",
      "perspective": {
        "aspectRatio": 1.4410905550146056,
        "yfov": 0.7853981633974483,
        "zfar": 100000,
        "znear": 70
      },
      "name": "Camera"
    }
  ],
  "extensionsUsed": [
    "KHR_texture_transform",
    "KHR_lights_punctual"
  ]
}