<svg xmlns="http://www.w3.org/2000/svg" width="25" height="24" viewBox="0 0 25 24" fill="none">
  <path d="M14.32 3.00001C14.32 2.79956 14.2003 2.61849 14.0159 2.53997C13.8314 2.46145 13.6179 2.50066 13.4734 2.6396L11.6955 4.34917C9.04827 6.89458 6.81144 9.83479 5.06461 13.0651C5.02348 13.1378 5 13.2217 5 13.3112C5 13.5873 5.22386 13.8112 5.5 13.8112H9.81V21C9.81 21.198 9.92684 21.3774 10.108 21.4574C10.2891 21.5374 10.5003 21.503 10.6467 21.3696L11.4422 20.645C14.2269 18.1083 16.5902 15.1446 18.4432 11.865L18.9353 10.9942C19.0228 10.8394 19.0215 10.6498 18.9318 10.4962C18.8422 10.3426 18.6778 10.2482 18.5 10.2482H14.32V3.00001Z" fill="url(#paint0_radial_136_9341)"/>
  <defs>
    <radialGradient id="paint0_radial_136_9341" cx="0" cy="0" r="1" gradientUnits="userSpaceOnUse" gradientTransform="translate(12 2.5) rotate(90) scale(19 14)">
      <stop stop-color="#FFEC40"/>
      <stop offset="1" stop-color="#F9BC12"/>
    </radialGradient>
  </defs>
</svg>
