<svg width="285" height="294" viewBox="0 0 285 294" fill="none" xmlns="http://www.w3.org/2000/svg">
<path fill-rule="evenodd" clip-rule="evenodd" d="M142.5 76C134.768 76 128.5 82.0047 128.5 89.4118C128.5 93.9012 130.803 97.8754 134.338 100.31C135.033 100.788 135.5 101.553 135.5 102.396V103C135.5 103.552 135.948 104 136.5 104H148.5C149.052 104 149.5 103.552 149.5 103V102.396C149.5 101.553 149.967 100.788 150.662 100.31C154.197 97.8754 156.5 93.9012 156.5 89.4118C156.5 82.0047 150.232 76 142.5 76ZM140.5 84C140.5 82.8954 141.395 82 142.5 82C146.918 82 150.5 85.5817 150.5 90C150.5 91.1046 149.605 92 148.5 92C147.395 92 146.5 91.1046 146.5 90C146.5 87.7909 144.709 86 142.5 86C141.395 86 140.5 85.1046 140.5 84Z" fill="#404040"/>
<path d="M149.172 109.123C149.357 108.543 148.885 108 148.276 108H136.724C136.115 108 135.643 108.543 135.828 109.123C136.727 111.951 139.374 114 142.5 114C145.626 114 148.273 111.951 149.172 109.123Z" fill="#404040"/>
<g filter="url(#filter0_f_127_1594)">
<path fill-rule="evenodd" clip-rule="evenodd" d="M142.5 128C134.768 128 128.5 134.005 128.5 141.412C128.5 145.901 130.803 149.875 134.338 152.31C135.033 152.788 135.5 153.553 135.5 154.396V155C135.5 155.552 135.948 156 136.5 156H148.5C149.052 156 149.5 155.552 149.5 155V154.396C149.5 153.553 149.967 152.788 150.662 152.31C154.197 149.875 156.5 145.901 156.5 141.412C156.5 134.005 150.232 128 142.5 128ZM140.5 136C140.5 134.895 141.395 134 142.5 134C146.918 134 150.5 137.582 150.5 142C150.5 143.105 149.605 144 148.5 144C147.395 144 146.5 143.105 146.5 142C146.5 139.791 144.709 138 142.5 138C141.395 138 140.5 137.105 140.5 136Z" fill="#404040"/>
<path d="M149.172 161.123C149.357 160.543 148.885 160 148.276 160H136.724C136.115 160 135.643 160.543 135.828 161.123C136.727 163.951 139.374 166 142.5 166C145.626 166 148.273 163.951 149.172 161.123Z" fill="#404040"/>
</g>
<defs>
<filter id="filter0_f_127_1594" x="-9.5" y="-4" width="304" height="304" filterUnits="userSpaceOnUse" color-interpolation-filters="sRGB">
<feFlood flood-opacity="0" result="BackgroundImageFix"/>
<feBlend mode="normal" in="SourceGraphic" in2="BackgroundImageFix" result="shape"/>
<feGaussianBlur stdDeviation="64" result="effect1_foregroundBlur_127_1594"/>
</filter>
</defs>
</svg>
