<svg width="91" height="96" viewBox="0 0 91 96" fill="none" xmlns="http://www.w3.org/2000/svg">
<path d="M72.8675 0.199198C73.1659 0.398335 73.3648 0.597472 73.5638 0.796609C82.814 13.9397 90.572 28.6758 90.572 48.1912C90.572 67.8062 82.5158 82.5424 73.5638 94.8892C73.2653 95.1875 73.1659 95.4866 72.768 95.7849C72.3702 96.0841 71.5745 95.9838 71.5745 95.9838H62.9212C62.9212 95.9838 62.6228 95.9838 62.5234 95.8844C62.4239 95.6855 62.5233 95.5861 62.6228 95.4866C66.104 88.5164 69.5852 81.4472 72.1712 73.4816C74.6578 65.9144 77.1444 57.6502 77.3433 47.9921C77.6417 37.4378 76.1498 31.0654 74.0611 24.2947C70.8782 14.1388 66.4024 6.07374 62.8218 0.796609C62.5233 0.398335 62.5233 0.298767 62.6228 0.0996293C62.8218 6.10352e-05 63.1202 6.10352e-05 63.1202 6.10352e-05H71.6739C71.6739 6.10352e-05 72.5691 6.10352e-05 72.8675 0.199198Z" fill="#FFEC40"/>
<path d="M65.9054 17.923C65.3087 16.4294 58.7442 1.79281 58.5452 1.39454C58.4457 1.1954 58.3463 1.29498 58.2468 1.29498C58.1473 1.39454 58.0479 1.49411 58.1473 1.89239C58.7442 7.26908 58.943 15.135 57.2522 24.0962C56.1581 29.9707 54.7656 35.3474 50.2898 43.3129C46.3113 50.4818 41.1392 55.759 36.2656 60.5382C31.1929 65.5167 25.7225 69.4994 20.3515 73.3826C20.2521 73.4822 20.1526 73.4822 20.1526 73.6813C20.1526 73.7809 20.451 73.98 20.451 73.98L27.0156 77.4649C27.0156 77.4649 27.6123 77.7636 28.0102 77.7636C28.408 77.664 28.6069 77.5645 28.9053 77.4649C40.6419 71.5904 52.4779 63.7245 60.3355 48.8887C64.9108 40.2262 67.3974 31.6634 67.1984 23.3992C66.9996 21.0095 66.4027 19.2173 65.9054 17.923Z" fill="#F9BC12"/>
<path d="M53.6714 16.828C53.7709 15.5336 54.0692 2.58966 54.0692 2.29095C54.0692 1.99225 53.9698 1.99225 53.8703 1.99225C53.7709 1.99225 53.6713 2.09182 53.5719 2.39053C52.1794 6.47283 49.494 12.2478 45.2171 18.2219C42.3326 22.1051 39.4482 25.59 33.4805 29.7718C28.1095 33.5554 22.4401 35.6464 17.2681 37.339C11.7976 39.1313 6.52609 40.2266 1.15508 41.1227C1.05562 41.1227 0.956152 41.1227 0.856689 41.2222C0.856689 41.3218 0.956153 41.521 0.956153 41.521L4.53683 46.3002C4.53683 46.3002 4.8352 46.7981 5.13358 46.8976C5.43195 46.9972 5.63089 46.9972 5.92926 46.9972C16.4723 46.8976 27.9105 45.3046 38.752 37.2395C45.1176 32.5598 49.8918 27.1831 52.5773 21.1094C53.373 19.4168 53.5719 17.9232 53.6714 16.828Z" fill="#F9BC12"/>
</svg>
