<svg width="103" height="20" viewBox="0 0 103 20" fill="none" xmlns="http://www.w3.org/2000/svg">
<g clip-path="url(#clip0_140_173)">
<path d="M33.1822 10.7596C33.1822 9.49704 32.8715 8.52583 32.2504 7.84599C31.6292 7.16613 30.8008 6.8262 29.7656 6.8262C29.1858 6.8262 28.7302 6.84702 28.3988 6.88865C28.0813 6.93027 27.826 6.97883 27.6327 7.03433V13.8605C27.8674 14.0548 28.2056 14.2421 28.6474 14.4225C29.0892 14.6028 29.5722 14.693 30.0969 14.693C30.649 14.693 31.1185 14.5959 31.5049 14.4017C31.9052 14.1935 32.2297 13.916 32.4781 13.5692C32.7267 13.2085 32.906 12.7922 33.0165 12.3205C33.1269 11.8349 33.1822 11.3146 33.1822 10.7596ZM35.1906 10.7596C35.1906 11.5782 35.0802 12.3344 34.8594 13.0281C34.6524 13.7218 34.3417 14.3184 33.9276 14.8179C33.5135 15.3174 33.0027 15.7058 32.3952 15.9833C31.8017 16.2608 31.1185 16.3996 30.3452 16.3996C29.7242 16.3996 29.172 16.3163 28.6888 16.1498C28.2194 15.9833 27.8674 15.8238 27.6327 15.6712V20H25.707V5.66076C26.1626 5.54976 26.7286 5.43183 27.4049 5.30695C28.0952 5.16822 28.889 5.09885 29.7863 5.09885C30.6145 5.09885 31.3599 5.23065 32.0226 5.49427C32.6852 5.75788 33.2511 6.13249 33.7204 6.6181C34.1899 7.1037 34.5488 7.70029 34.7972 8.4079C35.0595 9.10161 35.1906 9.88552 35.1906 10.7596Z" fill="white"/>
<path d="M40.9547 16.358C39.7676 16.3302 38.9254 16.0735 38.4285 15.5879C37.9315 15.1023 37.6831 14.3462 37.6831 13.3195V0.332986L39.6088 0V13.0073C39.6088 13.3264 39.6365 13.59 39.6917 13.7981C39.7469 14.0062 39.8365 14.1727 39.9608 14.2976C40.0851 14.4225 40.2508 14.5196 40.4578 14.589C40.6649 14.6445 40.9203 14.693 41.224 14.7347L40.9547 16.358Z" fill="white"/>
<path d="M46.8549 14.7555C47.3104 14.7555 47.7108 14.7485 48.0558 14.7346C48.4147 14.7069 48.7115 14.6653 48.9461 14.6098V11.384C48.8081 11.3146 48.5804 11.2591 48.2629 11.2175C47.9592 11.162 47.5865 11.1342 47.1447 11.1342C46.8549 11.1342 46.5442 11.155 46.2129 11.1967C45.8954 11.2383 45.5986 11.3285 45.3225 11.4672C45.0602 11.5921 44.8393 11.7725 44.6599 12.0083C44.4804 12.2303 44.3908 12.5286 44.3908 12.9032C44.3908 13.5969 44.6117 14.0825 45.0533 14.36C45.4951 14.6236 46.0956 14.7555 46.8549 14.7555ZM46.6892 5.05722C47.4622 5.05722 48.1111 5.16127 48.6356 5.3694C49.174 5.56363 49.6018 5.84806 49.9193 6.22267C50.2508 6.5834 50.4854 7.02045 50.6234 7.53381C50.7615 8.03329 50.8306 8.58826 50.8306 9.19874V15.9625C50.6649 15.9903 50.4302 16.0319 50.1265 16.0874C49.8367 16.129 49.5052 16.1706 49.1325 16.2123C48.7599 16.2539 48.3525 16.2886 47.9109 16.3163C47.4829 16.358 47.055 16.3788 46.627 16.3788C46.0197 16.3788 45.4606 16.3163 44.9499 16.1915C44.439 16.0666 43.9974 15.8723 43.6245 15.6087C43.2518 15.3312 42.962 14.9705 42.7549 14.5265C42.5479 14.0825 42.4443 13.5484 42.4443 12.924C42.4443 12.3274 42.5617 11.8141 42.7963 11.384C43.0449 10.9539 43.3761 10.607 43.7902 10.3434C44.2043 10.0798 44.6875 9.88552 45.2397 9.76065C45.7918 9.63579 46.3717 9.57335 46.9792 9.57335C47.1724 9.57335 47.3726 9.58722 47.5795 9.61497C47.7867 9.62885 47.9799 9.6566 48.1593 9.69822C48.3525 9.72597 48.5183 9.75372 48.6563 9.78147C48.7943 9.80922 48.8909 9.83002 48.9461 9.8439V9.30279C48.9461 8.98368 48.9117 8.67151 48.8427 8.36627C48.7736 8.04717 48.6493 7.76967 48.4699 7.53381C48.2904 7.28406 48.042 7.08983 47.7245 6.95108C47.4208 6.79847 47.0204 6.72215 46.5234 6.72215C45.8884 6.72215 45.3295 6.77072 44.8463 6.86783C44.377 6.95108 44.0249 7.04126 43.7902 7.13838L43.5625 5.53588C43.8109 5.4249 44.225 5.32083 44.8049 5.22372C45.3847 5.11272 46.0127 5.05722 46.6892 5.05722Z" fill="white"/>
<path d="M55.6542 5.32779H59.7335V6.95109H55.6542V11.9459C55.6542 12.487 55.6957 12.9379 55.7785 13.2986C55.8614 13.6455 55.9855 13.923 56.1512 14.1311C56.3169 14.3254 56.5239 14.4641 56.7724 14.5473C57.0208 14.6306 57.3108 14.6722 57.6421 14.6722C58.2219 14.6722 58.6844 14.6098 59.0294 14.4849C59.3883 14.3462 59.6369 14.2491 59.7749 14.1936L60.1476 15.7961C59.9544 15.8932 59.6162 16.0111 59.133 16.1498C58.6498 16.3025 58.0976 16.3788 57.4764 16.3788C56.7448 16.3788 56.1374 16.2886 55.6542 16.1082C55.1849 15.914 54.8053 15.6296 54.5153 15.255C54.2255 14.8803 54.0183 14.4225 53.8942 13.8814C53.7837 13.3264 53.7285 12.6882 53.7285 11.9667V2.31009L55.6542 1.97711V5.32779Z" fill="white"/>
<path d="M65.6522 14.7555C66.1078 14.7555 66.5081 14.7485 66.8533 14.7346C67.2122 14.7069 67.509 14.6653 67.7437 14.6098V11.384C67.6056 11.3146 67.3778 11.2591 67.0603 11.2175C66.7567 11.162 66.384 11.1342 65.9422 11.1342C65.6522 11.1342 65.3417 11.155 65.0104 11.1967C64.6929 11.2383 64.3962 11.3285 64.1201 11.4672C63.8578 11.5921 63.6369 11.7725 63.4574 12.0083C63.2779 12.2303 63.1881 12.5286 63.1881 12.9032C63.1881 13.5969 63.409 14.0825 63.8508 14.36C64.2926 14.6236 64.8931 14.7555 65.6522 14.7555ZM65.4867 5.05722C66.2597 5.05722 66.9085 5.16127 67.4331 5.3694C67.9715 5.56363 68.3994 5.84806 68.7169 6.22267C69.0481 6.5834 69.2829 7.02045 69.421 7.53381C69.559 8.03329 69.6279 8.58826 69.6279 9.19874V15.9625C69.4624 15.9903 69.2276 16.0319 68.924 16.0874C68.634 16.129 68.3028 16.1706 67.9301 16.2123C67.5572 16.2539 67.1501 16.2886 66.7083 16.3163C66.2804 16.358 65.8524 16.3788 65.4246 16.3788C64.8171 16.3788 64.2581 16.3163 63.7472 16.1915C63.2365 16.0666 62.7947 15.8723 62.4221 15.6087C62.0494 15.3312 61.7594 14.9705 61.5524 14.5265C61.3453 14.0825 61.2417 13.5484 61.2417 12.924C61.2417 12.3274 61.3592 11.8141 61.5938 11.384C61.8422 10.9539 62.1737 10.607 62.5878 10.3434C63.0019 10.0798 63.4851 9.88552 64.0372 9.76065C64.5894 9.63579 65.1692 9.57335 65.7765 9.57335C65.9697 9.57335 66.1699 9.58722 66.3771 9.61497C66.584 9.62885 66.7774 9.6566 66.9569 9.69822C67.1501 9.72597 67.3158 9.75372 67.4538 9.78147C67.5919 9.80922 67.6885 9.83002 67.7437 9.8439V9.30279C67.7437 8.98368 67.7092 8.67151 67.6401 8.36627C67.5712 8.04717 67.4469 7.76967 67.2674 7.53381C67.0879 7.28406 66.8396 7.08983 66.5221 6.95108C66.2183 6.79847 65.8179 6.72215 65.321 6.72215C64.686 6.72215 64.1269 6.77072 63.6438 6.86783C63.1744 6.95108 62.8224 7.04126 62.5878 7.13838L62.3599 5.53588C62.6085 5.4249 63.0226 5.32083 63.6024 5.22372C64.1821 5.11272 64.8103 5.05722 65.4867 5.05722Z" fill="white"/>
<path d="M72.6504 5.63995C73.0922 5.52895 73.679 5.41103 74.4106 5.28615C75.1422 5.16128 75.9843 5.09885 76.9368 5.09885C77.7927 5.09885 78.5036 5.22372 79.0695 5.47345C79.6356 5.70933 80.0841 6.04924 80.4154 6.49322C80.7606 6.92333 81.0022 7.44363 81.1402 8.0541C81.2782 8.66458 81.3474 9.33749 81.3474 10.0728V16.1498H79.4215V10.4891C79.4215 9.8231 79.3732 9.25424 79.2766 8.78251C79.1938 8.31077 79.0488 7.92922 78.8418 7.63786C78.6347 7.34651 78.3586 7.13838 78.0134 7.01352C77.6684 6.87477 77.2404 6.8054 76.7297 6.8054C76.5225 6.8054 76.3086 6.81233 76.0877 6.8262C75.8668 6.84008 75.6529 6.8609 75.4459 6.88865C75.2525 6.90252 75.0731 6.92333 74.9075 6.95108C74.7556 6.97883 74.6452 6.99965 74.5761 7.01352V16.1498H72.6504V5.63995Z" fill="white"/>
<path d="M92.937 15.8377C92.4952 15.9487 91.9086 16.0666 91.177 16.1915C90.4592 16.3163 89.624 16.3788 88.6715 16.3788C87.8433 16.3788 87.1461 16.2608 86.5801 16.025C86.0142 15.7752 85.5586 15.4284 85.2135 14.9844C84.8683 14.5404 84.6199 14.0201 84.4679 13.4235C84.3161 12.813 84.2402 12.1401 84.2402 11.4048V5.32779H86.1659V10.9886C86.1659 12.3066 86.3731 13.2501 86.7872 13.819C87.2013 14.3878 87.8984 14.6722 88.8784 14.6722C89.0856 14.6722 89.2995 14.6653 89.5204 14.6514C89.7413 14.6375 89.9484 14.6237 90.1417 14.6098C90.3349 14.582 90.5074 14.5612 90.6593 14.5473C90.8249 14.5196 90.9422 14.4919 91.0113 14.4641V5.32779H92.937V15.8377Z" fill="white"/>
<path d="M98.5842 14.7555C99.371 14.7555 99.9508 14.6514 100.324 14.4433C100.71 14.2352 100.903 13.9022 100.903 13.4443C100.903 12.9726 100.717 12.598 100.344 12.3205C99.9716 12.043 99.3573 11.7308 98.5014 11.384C98.0873 11.2175 97.6869 11.051 97.3003 10.8845C96.9276 10.7041 96.6033 10.496 96.3271 10.2601C96.051 10.0243 95.8301 9.73985 95.6646 9.40686C95.4989 9.07386 95.416 8.66458 95.416 8.17897C95.416 7.22163 95.7682 6.46547 96.4721 5.91051C97.1762 5.34165 98.1355 5.05722 99.3503 5.05722C99.6541 5.05722 99.9578 5.07802 100.261 5.11965C100.565 5.1474 100.848 5.18902 101.11 5.24452C101.373 5.28615 101.6 5.3347 101.794 5.3902C102.001 5.4457 102.16 5.49427 102.27 5.53588L101.918 7.20083C101.711 7.08983 101.387 6.97883 100.945 6.86783C100.503 6.74297 99.9716 6.68052 99.3503 6.68052C98.8119 6.68052 98.3426 6.79152 97.9423 7.01352C97.5419 7.22163 97.3417 7.55461 97.3417 8.01247C97.3417 8.24835 97.3832 8.45645 97.466 8.63683C97.5626 8.81718 97.7007 8.98368 97.8801 9.13631C98.0733 9.27504 98.3082 9.40686 98.5842 9.53172C98.8603 9.6566 99.1916 9.7884 99.5782 9.92715C100.089 10.1214 100.544 10.3156 100.945 10.5099C101.345 10.6902 101.683 10.9053 101.959 11.155C102.249 11.4048 102.47 11.71 102.622 12.0708C102.774 12.4176 102.85 12.8477 102.85 13.3611C102.85 14.36 102.477 15.1162 101.732 15.6295C101 16.1429 99.9508 16.3996 98.5842 16.3996C97.6317 16.3996 96.8862 16.3163 96.3478 16.1498C95.8094 15.9972 95.4437 15.8793 95.2505 15.796L95.6025 14.1311C95.8233 14.2143 96.1753 14.3392 96.6585 14.5057C97.1416 14.6722 97.7835 14.7555 98.5842 14.7555Z" fill="white"/>
<path d="M16.2525 0.041487C16.3146 0.0829738 16.3561 0.124461 16.3975 0.165947C18.3247 2.90409 19.9409 5.97411 19.9409 10.0398C19.9409 14.1263 18.2625 17.1963 16.3975 19.7686C16.3354 19.8307 16.3146 19.893 16.2317 19.9552C16.1489 20.0175 15.9831 19.9966 15.9831 19.9966H14.1803C14.1803 19.9966 14.1182 19.9966 14.0975 19.9759C14.0767 19.9345 14.0974 19.9138 14.1182 19.893C14.8434 18.4409 15.5687 16.9681 16.1074 15.3087C16.6255 13.7322 17.1435 12.0104 17.1849 9.99834C17.2471 7.79954 16.9363 6.47195 16.5011 5.06139C15.838 2.94557 14.9056 1.26535 14.1596 0.165947C14.0974 0.0829737 14.0974 0.0622304 14.1182 0.0207434C14.1596 0 14.2218 0 14.2218 0H16.0038C16.0038 0 16.1903 0 16.2525 0.041487Z" fill="#FFEC40"/>
<path d="M14.8019 3.73391C14.6775 3.42275 13.3099 0.373459 13.2685 0.290486C13.2478 0.248999 13.227 0.269743 13.2063 0.269743C13.1856 0.290486 13.1649 0.311229 13.1856 0.394204C13.3099 1.51435 13.3514 3.15308 12.9991 5.02C12.7712 6.24385 12.4811 7.364 11.5486 9.02348C10.7198 10.517 9.64223 11.6164 8.62689 12.6121C7.57009 13.6493 6.43041 14.479 5.31147 15.288C5.29075 15.3087 5.27002 15.3087 5.27002 15.3502C5.27002 15.371 5.33218 15.4125 5.33218 15.4125L6.69981 16.1385C6.69981 16.1385 6.82413 16.2007 6.90702 16.2007C6.9899 16.18 7.03134 16.1592 7.0935 16.1385C9.53863 14.9146 12.0045 13.2759 13.6415 10.1851C14.5946 8.38042 15.1127 6.5965 15.0712 4.87478C15.0298 4.37694 14.9055 4.00357 14.8019 3.73391Z" fill="#F9BC12"/>
<path d="M12.2531 3.50578C12.2738 3.23612 12.3359 0.539469 12.3359 0.477239C12.3359 0.415009 12.3152 0.415009 12.2945 0.415009C12.2738 0.415009 12.2531 0.435753 12.2323 0.497984C11.9422 1.34846 11.3828 2.55159 10.4918 3.79619C9.89082 4.60519 9.28989 5.33121 8.04663 6.20242C6.92766 6.99067 5.74654 7.4263 4.66904 7.77892C3.52936 8.15232 2.43113 8.3805 1.31216 8.56719C1.29144 8.56719 1.27072 8.56719 1.25 8.58792C1.25 8.60867 1.27072 8.65016 1.27072 8.65016L2.0167 9.64584C2.0167 9.64584 2.07886 9.74957 2.14102 9.7703C2.20318 9.79105 2.24463 9.79105 2.30679 9.79105C4.50325 9.7703 6.88621 9.43841 9.14486 7.75819C10.471 6.78325 11.4656 5.6631 12.0251 4.39775C12.1909 4.04512 12.2323 3.73396 12.2531 3.50578Z" fill="#F9BC12"/>
</g>
<defs>
<clipPath id="clip0_140_173">
<rect width="102.857" height="20" fill="white"/>
</clipPath>
</defs>
</svg>
